<?xml version="1.0" encoding="utf-8"?>
<!-- Generator: Adobe Illustrator 16.0.0, SVG Export Plug-In . SVG Version: 6.00 Build 0)  -->
<!DOCTYPE svg PUBLIC "-//W3C//DTD SVG 1.1//EN" "http://www.w3.org/Graphics/SVG/1.1/DTD/svg11.dtd">
<svg version="1.1" id="Layer_1" xmlns="http://www.w3.org/2000/svg" xmlns:xlink="http://www.w3.org/1999/xlink" x="0px" y="0px"
	 width="349.463px" height="51.333px" viewBox="0 0 349.463 51.333" enable-background="new 0 0 349.463 51.333"
	 xml:space="preserve">
<g>
	<path fill="#F2706C" d="M63.168,36.174l-1.833,2.63L50.04,25.391l11.296-13.413l1.833,2.654l-9.161,10.711L63.168,36.174z"/>
</g>
<g>
	<path fill="#F2706C" d="M292.521,15.007l1.814-2.654l11.297,13.413l-11.297,13.413l-1.814-2.63l9.16-10.735L292.521,15.007z"/>
</g>
<g>
	<path fill="#8C8C8C" d="M180.824,18.023l-1.195,5.993h8.201l-0.68,3.353h-8.201l-1.76,8.883h-4.151l4.35-21.699h12.816l-0.715,3.47
		H180.824z"/>
	<path fill="#8C8C8C" d="M195.345,39.01l4.289-21.103h-4.814l0.68-3.354h13.746l-0.68,3.354h-4.799l-4.271,21.103"/>
	<path fill="#8C8C8C" d="M219.738,36.252l-3.221-12.95l-0.646-2.789l-1.811,8.999l-1.328,6.74h-3.701l4.35-21.699h4.797
		l3.305,13.033l0.531,2.539l1.908-9.579l1.229-5.993h3.736l-4.35,21.699H219.738z"/>
	<path fill="#8C8C8C" d="M246.384,21.975c0,0.454-0.025,1.007-0.074,1.66c-0.051,0.653-0.15,1.359-0.299,2.117
		c-0.15,0.758-0.361,1.544-0.631,2.357c-0.271,0.813-0.635,1.608-1.088,2.382c-0.455,0.775-1.004,1.512-1.652,2.209
		c-0.646,0.697-1.422,1.309-2.324,1.834s-1.941,0.943-3.121,1.254c-1.178,0.31-2.521,0.465-4.025,0.465h-5.678l4.35-21.699h6.225
		c2.746,0,4.818,0.617,6.219,1.851C245.683,17.639,246.384,19.496,246.384,21.975z M242.001,22.323c0-0.697-0.084-1.317-0.25-1.859
		c-0.166-0.542-0.432-0.996-0.797-1.361s-0.84-0.645-1.428-0.838c-0.586-0.193-1.301-0.291-2.141-0.291h-2.176l-2.971,14.859h1.709
		c1.162,0,2.17-0.186,3.021-0.557c0.854-0.371,1.574-0.855,2.168-1.453c0.592-0.598,1.076-1.277,1.451-2.041
		c0.377-0.764,0.668-1.533,0.873-2.308c0.203-0.774,0.346-1.527,0.422-2.258C241.962,23.485,242.001,22.854,242.001,22.323z"/>
	<path fill="#8C8C8C" d="M247.812,36.252l4.35-21.699h13.049l-0.715,3.453h-8.898l-1.096,5.396h8.5l-0.646,3.37h-8.5l-1.213,6.027
		h8.898l-0.68,3.453H247.812z"/>
	<path fill="#8C8C8C" d="M276.632,36.252l-1.328-5.412c-0.166-0.72-0.352-1.312-0.557-1.777s-0.438-0.83-0.697-1.096
		s-0.551-0.447-0.871-0.547c-0.322-0.1-0.688-0.15-1.096-0.15h-0.631l-1.777,8.982h-4.084l4.35-21.699h6.227
		c1.029,0,1.965,0.086,2.805,0.257c0.842,0.172,1.561,0.446,2.158,0.822c0.598,0.376,1.057,0.863,1.379,1.461
		c0.32,0.598,0.48,1.328,0.48,2.191c0,0.875-0.133,1.693-0.398,2.457s-0.652,1.447-1.162,2.05c-0.508,0.604-1.125,1.107-1.85,1.511
		c-0.727,0.404-1.547,0.689-2.467,0.855c0.277,0.155,0.531,0.352,0.764,0.589c0.232,0.238,0.451,0.542,0.656,0.913
		s0.404,0.819,0.598,1.345c0.193,0.526,0.396,1.148,0.605,1.868l1.494,5.379H276.632z M273.544,24.083
		c0.785,0,1.496-0.085,2.133-0.257c0.637-0.171,1.176-0.423,1.619-0.755c0.441-0.332,0.783-0.741,1.021-1.229
		c0.236-0.487,0.355-1.046,0.355-1.677c0-0.764-0.268-1.322-0.805-1.677c-0.537-0.354-1.393-0.531-2.564-0.531h-1.977l-1.229,6.126
		H273.544z"/>
</g>
<g>
	<g>
		
			<line fill="none" stroke="#8C8C8C" stroke-width="4.15" stroke-miterlimit="10" x1="197.566" y1="38.337" x2="197.354" y2="39.399"/>
		<g>
			<path fill="#8C8C8C" d="M195.835,47.013c-0.615-3.848-1.996-8.746-3.85-11.98l5.567,3.367l6.433-0.974
				C201.033,39.703,197.878,43.695,195.835,47.013z"/>
		</g>
	</g>
</g>
<g>
	<g>
		
			<line fill="none" stroke="#4D4D4D" stroke-width="4.15" stroke-miterlimit="10" x1="117.95" y1="12.479" x2="117.95" y2="11.188"/>
		<g>
			<path fill="#4D4D4D" d="M117.95,3.424c1.355,3.653,3.668,8.187,6.119,10.996l-6.119-2.213l-6.117,2.213
				C114.283,11.611,116.596,7.078,117.95,3.424z"/>
		</g>
	</g>
</g>
<g>
	<path fill="#4D4D4D" d="M88.154,29.701c0,1.185-0.219,2.214-0.656,3.088c-0.438,0.874-1.049,1.597-1.834,2.167
		c-0.786,0.569-1.721,0.993-2.806,1.27c-1.085,0.276-2.269,0.415-3.553,0.415c-1.14,0-2.241-0.066-3.304-0.199
		s-2.114-0.354-3.154-0.664v-4.034c0.509,0.177,1.04,0.343,1.594,0.498c0.553,0.155,1.109,0.291,1.668,0.406
		c0.559,0.117,1.115,0.208,1.668,0.274c0.553,0.066,1.09,0.1,1.61,0.1c0.774,0,1.433-0.066,1.976-0.199
		c0.542-0.133,0.985-0.315,1.328-0.548c0.343-0.232,0.592-0.509,0.747-0.83c0.155-0.321,0.232-0.675,0.232-1.062
		c0-0.531-0.152-0.977-0.457-1.336c-0.305-0.36-0.706-0.679-1.204-0.955s-1.065-0.525-1.702-0.747
		c-0.637-0.222-1.284-0.459-1.942-0.714c-0.659-0.255-1.306-0.542-1.942-0.863c-0.637-0.321-1.204-0.72-1.702-1.195
		s-0.899-1.043-1.204-1.701c-0.305-0.659-0.457-1.453-0.457-2.383c0-0.853,0.155-1.66,0.465-2.424c0.31-0.764,0.797-1.43,1.461-2
		c0.664-0.57,1.516-1.023,2.557-1.361c1.04-0.337,2.296-0.506,3.769-0.506c0.432,0,0.882,0.02,1.353,0.058
		c0.47,0.039,0.935,0.089,1.395,0.149c0.459,0.061,0.902,0.133,1.328,0.216c0.426,0.083,0.816,0.169,1.17,0.257v3.735
		c-0.354-0.133-0.742-0.255-1.162-0.365c-0.421-0.11-0.855-0.208-1.303-0.29c-0.448-0.084-0.899-0.147-1.353-0.191
		c-0.454-0.044-0.886-0.066-1.295-0.066c-0.72,0-1.328,0.059-1.826,0.174c-0.498,0.117-0.908,0.277-1.229,0.482
		c-0.321,0.204-0.554,0.456-0.697,0.755c-0.144,0.299-0.216,0.631-0.216,0.996c0,0.454,0.152,0.844,0.457,1.171
		c0.304,0.326,0.708,0.619,1.212,0.879c0.503,0.261,1.073,0.504,1.71,0.73c0.636,0.228,1.289,0.471,1.959,0.73
		c0.669,0.261,1.322,0.557,1.959,0.889c0.636,0.332,1.206,0.736,1.71,1.212c0.503,0.476,0.907,1.038,1.212,1.685
		C88.001,28.049,88.154,28.815,88.154,29.701z"/>
	<path fill="#4D4D4D" d="M107.212,21.466c0,1.129-0.188,2.172-0.564,3.13c-0.376,0.957-0.936,1.784-1.677,2.481
		c-0.742,0.697-1.666,1.239-2.772,1.627c-1.107,0.388-2.391,0.581-3.852,0.581h-2.075v6.973h-4.117V14.56h6.358
		c1.405,0,2.648,0.152,3.727,0.457c1.079,0.305,1.986,0.75,2.723,1.336c0.736,0.587,1.295,1.309,1.677,2.167
		C107.021,19.377,107.212,20.36,107.212,21.466z M102.929,21.749c0-0.575-0.091-1.099-0.274-1.568
		c-0.183-0.471-0.459-0.872-0.83-1.204c-0.371-0.332-0.838-0.587-1.403-0.764s-1.234-0.266-2.009-0.266h-2.142v7.952h2.274
		c0.708,0,1.333-0.097,1.876-0.291c0.542-0.193,0.999-0.473,1.37-0.838c0.371-0.365,0.653-0.803,0.847-1.312
		C102.832,22.95,102.929,22.379,102.929,21.749z"/>
	<path fill="#4D4D4D" d="M120.029,10.897v21.991h4.781v3.37h-13.713v-3.37h4.781V10.897"/>
	<path fill="#4D4D4D" d="M140.117,36.258l-6.524-10.492v10.492h-4.15V14.56h4.15v9.878l6.491-9.878h4.931l-7.371,10.343
		l7.753,11.355H140.117z"/>
	<path fill="#4D4D4D" d="M149.048,36.258V14.56h13.065v3.453h-8.915v5.396h8.5v3.37h-8.5v6.026h8.915v3.453H149.048z"/>
</g>
</svg>
